# xmcd CD database file
# Copyright (C) 1993-1998 Ti Kan
# 
# Track frame offsets:
#     150
#     676
#     43715
#     66193
#     123018
#     154914
#     179385
#     192258
# 
# Disc length: 2779 seconds
# 
# Revision: 1
# Processed by: cddbd v1.4b41PL1 Copyright (c) Steve Scherf et al.
# Submitted via: DiscPlay 4.0.4
# 
DISCID=630ad908
DTITLE=Johnny Winter - Blues In A Box ( disc 3 )
DYEAR=1900
DGENRE=
TTITLE0=Introduction
TTITLE1=Mean Town Blues
TTITLE2=Black Cat Bone
TTITLE3=Mean Mistreater
TTITLE4=Talk To Your Daughter
TTITLE5=Look Up
TTITLE6=I Can Love You Baby
TTITLE7=Go Johnny Go
EXTD=
EXTT0=
EXTT1=
EXTT2=
EXTT3=
EXTT4=
EXTT5=
EXTT6=
EXTT7=
PLAYORDER=
